<svg id="visual" viewBox="0 0 900 800" width="900" height="800" xmlns="http://www.w3.org/2000/svg" xmlns:xlink="http://www.w3.org/1999/xlink" version="1.1"><path d="M0 185L13.7 182.3C27.3 179.7 54.7 174.3 82 170.3C109.3 166.3 136.7 163.7 163.8 159.7C191 155.7 218 150.3 245.2 171.7C272.3 193 299.7 241 327 243.7C354.3 246.3 381.7 203.7 409 198.3C436.3 193 463.7 225 491 241C518.3 257 545.7 257 573 251.7C600.3 246.3 627.7 235.7 654.8 233C682 230.3 709 235.7 736.2 245C763.3 254.3 790.7 267.7 818 247.7C845.3 227.7 872.7 174.3 886.3 147.7L900 121L900 0L886.3 0C872.7 0 845.3 0 818 0C790.7 0 763.3 0 736.2 0C709 0 682 0 654.8 0C627.7 0 600.3 0 573 0C545.7 0 518.3 0 491 0C463.7 0 436.3 0 409 0C381.7 0 354.3 0 327 0C299.7 0 272.3 0 245.2 0C218 0 191 0 163.8 0C136.7 0 109.3 0 82 0C54.7 0 27.3 0 13.7 0L0 0Z" fill="#004cbb"></path><path d="M0 305L13.7 306.3C27.3 307.7 54.7 310.3 82 303.7C109.3 297 136.7 281 163.8 285C191 289 218 313 245.2 334.3C272.3 355.7 299.7 374.3 327 374.3C354.3 374.3 381.7 355.7 409 357C436.3 358.3 463.7 379.7 491 383.7C518.3 387.7 545.7 374.3 573 366.3C600.3 358.3 627.7 355.7 654.8 357C682 358.3 709 363.7 736.2 390.3C763.3 417 790.7 465 818 461C845.3 457 872.7 401 886.3 373L900 345L900 119L886.3 145.7C872.7 172.3 845.3 225.7 818 245.7C790.7 265.7 763.3 252.3 736.2 243C709 233.7 682 228.3 654.8 231C627.7 233.7 600.3 244.3 573 249.7C545.7 255 518.3 255 491 239C463.7 223 436.3 191 409 196.3C381.7 201.7 354.3 244.3 327 241.7C299.7 239 272.3 191 245.2 169.7C218 148.3 191 153.7 163.8 157.7C136.7 161.7 109.3 164.3 82 168.3C54.7 172.3 27.3 177.7 13.7 180.3L0 183Z" fill="#0059dd"></path><path d="M0 385L13.7 395.7C27.3 406.3 54.7 427.7 82 431.7C109.3 435.7 136.7 422.3 163.8 427.7C191 433 218 457 245.2 467.7C272.3 478.3 299.7 475.7 327 473C354.3 470.3 381.7 467.7 409 470.3C436.3 473 463.7 481 491 474.3C518.3 467.7 545.7 446.3 573 450.3C600.3 454.3 627.7 483.7 654.8 495.7C682 507.7 709 502.3 736.2 517C763.3 531.7 790.7 566.3 818 553C845.3 539.7 872.7 478.3 886.3 447.7L900 417L900 343L886.3 371C872.7 399 845.3 455 818 459C790.7 463 763.3 415 736.2 388.3C709 361.7 682 356.3 654.8 355C627.7 353.7 600.3 356.3 573 364.3C545.7 372.3 518.3 385.7 491 381.7C463.7 377.7 436.3 356.3 409 355C381.7 353.7 354.3 372.3 327 372.3C299.7 372.3 272.3 353.7 245.2 332.3C218 311 191 287 163.8 283C136.7 279 109.3 295 82 301.7C54.7 308.3 27.3 305.7 13.7 304.3L0 303Z" fill="#0066ff"></path><path d="M0 449L13.7 465C27.3 481 54.7 513 82 529C109.3 545 136.7 545 163.8 547.7C191 550.3 218 555.7 245.2 565C272.3 574.3 299.7 587.7 327 594.3C354.3 601 381.7 601 409 591.7C436.3 582.3 463.7 563.7 491 554.3C518.3 545 545.7 545 573 551.7C600.3 558.3 627.7 571.7 654.8 582.3C682 593 709 601 736.2 611.7C763.3 622.3 790.7 635.7 818 615.7C845.3 595.7 872.7 542.3 886.3 515.7L900 489L900 415L886.3 445.7C872.7 476.3 845.3 537.7 818 551C790.7 564.3 763.3 529.7 736.2 515C709 500.3 682 505.7 654.8 493.7C627.7 481.7 600.3 452.3 573 448.3C545.7 444.3 518.3 465.7 491 472.3C463.7 479 436.3 471 409 468.3C381.7 465.7 354.3 468.3 327 471C299.7 473.7 272.3 476.3 245.2 465.7C218 455 191 431 163.8 425.7C136.7 420.3 109.3 433.7 82 429.7C54.7 425.7 27.3 404.3 13.7 393.7L0 383Z" fill="#3c80ff"></path><path d="M0 801L13.7 801C27.3 801 54.7 801 82 801C109.3 801 136.7 801 163.8 801C191 801 218 801 245.2 801C272.3 801 299.7 801 327 801C354.3 801 381.7 801 409 801C436.3 801 463.7 801 491 801C518.3 801 545.7 801 573 801C600.3 801 627.7 801 654.8 801C682 801 709 801 736.2 801C763.3 801 790.7 801 818 801C845.3 801 872.7 801 886.3 801L900 801L900 487L886.3 513.7C872.7 540.3 845.3 593.7 818 613.7C790.7 633.7 763.3 620.3 736.2 609.7C709 599 682 591 654.8 580.3C627.7 569.7 600.3 556.3 573 549.7C545.7 543 518.3 543 491 552.3C463.7 561.7 436.3 580.3 409 589.7C381.7 599 354.3 599 327 592.3C299.7 585.7 272.3 572.3 245.2 563C218 553.7 191 548.3 163.8 545.7C136.7 543 109.3 543 82 527C54.7 511 27.3 479 13.7 463L0 447Z" fill="#6198ff"></path></svg>